<svg width="51" height="51" viewBox="0 0 51 51" fill="none" xmlns="http://www.w3.org/2000/svg">
<path fill-rule="evenodd" clip-rule="evenodd" d="M41.311 9.67208C39.2481 7.60824 36.7975 5.9728 34.1 4.8599C31.4026 3.74701 28.5116 3.17864 25.5936 3.18751C13.3477 3.18751 3.37875 13.1066 3.37377 25.3008C3.36835 29.1837 4.39187 32.9987 6.34014 36.3574L3.1875 47.8125L14.9663 44.7376C18.2267 46.5039 21.8765 47.4283 25.5847 47.427H25.5936C37.8386 47.427 47.8065 37.5069 47.8125 25.3137C47.8199 22.4057 47.2489 19.5252 46.1328 16.8399C45.0166 14.1546 43.3776 11.7181 41.311 9.67208ZM25.5936 43.6947H25.5857C22.28 43.6956 19.0345 42.811 16.1865 41.1327L15.5122 40.7343L8.52258 42.5591L10.3883 35.7767L9.94898 35.0794C8.10062 32.1531 7.12132 28.762 7.12506 25.3008C7.12506 15.1675 15.4136 6.92286 25.6006 6.92286C30.4874 6.91414 35.1776 8.84685 38.6396 12.2959C42.1015 15.745 44.0517 20.4279 44.0612 25.3147C44.0572 35.449 35.7727 43.6947 25.5936 43.6947ZM35.7229 29.9296C35.1681 29.6527 32.4358 28.316 31.9298 28.1317C31.4238 27.9474 31.0502 27.8548 30.6807 28.4086C30.3111 28.9624 29.2463 30.2016 28.9226 30.5751C28.5988 30.9486 28.2751 30.9895 27.7203 30.7126C27.1655 30.4357 25.3755 29.8529 23.2548 27.9703C21.6043 26.5051 20.4906 24.6962 20.1669 24.1433C19.8432 23.5905 20.132 23.2907 20.41 23.0158C20.66 22.7677 20.9648 22.3703 21.2427 22.0475C21.5206 21.7248 21.6132 21.4937 21.7975 21.1252C21.9818 20.7566 21.8902 20.4339 21.7517 20.158C21.6132 19.882 20.5026 17.1617 20.0404 16.055C19.5892 14.9773 19.132 15.1237 18.7913 15.1068C18.4676 15.0908 18.094 15.0868 17.7265 15.0868C17.4455 15.0942 17.169 15.1593 16.9144 15.2783C16.6597 15.3972 16.4323 15.5674 16.2463 15.7781C15.7373 16.332 14.3029 17.6707 14.3029 20.3881C14.3029 23.1054 16.2951 25.7351 16.57 26.1036C16.8449 26.4722 20.4847 32.0533 26.0538 34.4469C27.088 34.8898 28.1446 35.2781 29.2194 35.6104C30.5492 36.0307 31.7595 35.9719 32.7157 35.8295C33.7825 35.6711 36.0028 34.4927 36.464 33.2018C36.9252 31.9109 36.9262 30.8052 36.7877 30.5751C36.6493 30.345 36.2787 30.2056 35.7229 29.9296Z" fill="white"/>
</svg>
