<svg width="245" height="31" viewBox="0 0 245 31" fill="none" xmlns="http://www.w3.org/2000/svg">
<path d="M122.005 26.7155H113.753V4.38242H122.005V26.7155ZM114.558 25.8997H121.199V5.19821H114.558V25.8997ZM133.488 26.7155H125.401V4.38242H142.297C144.717 4.18402 147.127 4.87185 149.089 6.32074C149.933 7.10277 150.588 8.07173 151.001 9.152C151.415 10.2323 151.576 11.3947 151.473 12.5485C151.593 14.5422 150.967 16.5086 149.718 18.0551C148.24 19.7715 145.78 20.6558 142.408 20.6868C141.558 20.7096 135.193 20.6868 133.493 20.6868L133.488 26.7155ZM126.202 25.8997H132.682V19.8628H133.087C133.169 19.8628 141.433 19.8889 142.389 19.8628C145.53 19.8351 147.788 19.0471 149.108 17.5085C150.22 16.1093 150.772 14.3386 150.656 12.5468C150.755 11.513 150.617 10.47 150.254 9.49863C149.891 8.52727 149.311 7.65369 148.56 6.94563C146.741 5.62422 144.516 5.00394 142.285 5.19658H126.207L126.202 25.8997ZM140.585 15.6697H132.627V9.59042H140.638C141.206 9.511 141.784 9.57809 142.32 9.78544C142.855 9.99282 143.33 10.3337 143.701 10.7766C144.037 11.3426 144.195 11.9986 144.155 12.6578C144.185 13.2698 144.055 13.879 143.776 14.4232C143.394 14.8896 142.9 15.2487 142.341 15.4658C141.782 15.683 141.177 15.7509 140.585 15.6632V15.6697ZM133.433 14.8539H140.585C141.907 14.8539 142.725 14.5749 143.088 14.0006C143.288 13.5831 143.378 13.1208 143.351 12.6578C143.386 12.1717 143.282 11.6856 143.051 11.2579L143.041 11.2432C142.658 10.6722 141.895 10.4062 140.638 10.4062H133.433V14.8539ZM166.181 27.0451C158.944 27.0451 154.624 25.2258 152.978 21.4846C152.709 20.762 152.526 20.0094 152.434 19.2428L152.363 18.7729H160.973L161.029 19.1156C161.096 19.4634 161.242 19.7909 161.455 20.0717C161.795 20.4877 162.93 21.1861 166.695 21.1861C171.221 21.1861 171.221 20.3817 171.221 19.9493C171.221 19.22 170.697 18.9704 167.006 18.5723L166.305 18.5054C164.916 18.3732 163.159 18.2052 162.356 18.135C155.586 17.515 152.564 15.3858 152.564 11.2334C152.564 6.87221 157.707 4.05447 165.668 4.05447C172.162 4.05447 176.347 5.78721 178.102 9.20863C178.518 10.0045 178.798 10.8663 178.929 11.7572L178.985 12.2156H170.365L170.33 11.8469C170.296 11.5587 170.175 11.2884 169.982 11.0735C169.659 10.6363 168.641 9.91347 165.478 9.91347C161.595 9.91347 161.06 10.416 161.06 10.9577C161.06 11.6805 162.287 11.9366 166.218 12.3625C167.857 12.4979 170.493 12.772 171.395 12.8829C177.071 13.5062 179.603 15.5832 179.603 19.6197C179.604 23.0053 177.275 27.0451 166.181 27.0451ZM153.304 19.5887C153.385 20.1268 153.524 20.6542 153.718 21.1616C155.217 24.5699 159.295 26.2293 166.181 26.2293C171.938 26.2293 178.803 25.0872 178.803 19.6197C178.803 16.0417 176.563 14.2698 171.31 13.6938C170.407 13.5829 167.788 13.3104 166.152 13.1734C161.961 12.7133 160.257 12.4685 160.257 10.9577C160.257 9.39463 162.093 9.09768 165.481 9.09768C168.159 9.09768 169.888 9.58716 170.622 10.5743C170.821 10.8175 170.973 11.0979 171.066 11.3998H178.052C177.912 10.7688 177.689 10.1593 177.391 9.58716C175.779 6.45616 171.842 4.87026 165.672 4.87026C158.201 4.87026 153.373 7.36821 153.373 11.2334C153.373 14.9208 156.083 16.7416 162.43 17.3225C163.236 17.3926 164.991 17.5607 166.384 17.6945L167.09 17.7614C170.518 18.1268 172.03 18.3553 172.03 19.9493C172.03 21.6657 170.075 22.0018 166.698 22.0018C163.575 22.0018 161.602 21.5271 160.839 20.5922C160.604 20.2941 160.427 19.9536 160.317 19.5887H153.304ZM194.915 27.0173C186.501 27.0173 181.859 23.5731 181.859 17.3176V4.38242H190.002V17.3176C190.002 19.4631 191.899 20.6933 195.205 20.6933C198.365 20.6933 200.326 19.4093 200.326 17.3453V4.38242H208.385V18.0028C208.393 23.7313 203.479 27.0173 194.91 27.0173H194.915ZM182.665 5.19821V17.3176C182.665 25.048 190.334 26.2015 194.915 26.2015C199.651 26.2015 207.592 25.1361 207.592 18.0028V5.19821H201.145V17.3453C201.145 19.8743 198.817 21.5091 195.218 21.5091C191.456 21.5091 189.209 19.9428 189.209 17.3176V5.19821H182.665ZM242.537 26.7155H234.852V16.6323L230.493 26.7155H223.79L219.476 16.6519V26.7155H211.764V4.38242H221.909L227.179 16.6959L232.705 4.38242H242.547L242.537 26.7155ZM235.658 25.8997H241.731V5.19821H233.217L227.154 18.7061L221.374 5.19821H212.563V25.8997H218.664V12.7263L224.306 25.9046H229.947L235.648 12.7459L235.658 25.8997ZM9.75809 4.79032H2.41776V26.3076H22.7012V20.5791H9.75809V4.79032ZM37.5172 4.30084C28.1476 4.30084 23.2202 8.79584 23.2202 15.3956C23.2202 22.8519 28.3926 26.6339 37.5172 26.6339C47.5622 26.6339 51.7869 22.2482 51.7869 15.3956C51.7869 8.4369 47.0207 4.29758 37.5172 4.29758V4.30084ZM37.4898 9.89226C38.1276 9.88923 38.7651 9.92682 39.3983 10.0048L31.1924 18.3112C30.8041 17.4222 30.6147 16.4571 30.6379 15.4853C30.6379 12.1096 32.3174 9.889 37.4898 9.889V9.89226ZM37.5172 21.1306C36.9026 21.1334 36.2885 21.0984 35.6781 21.0262L43.8985 12.7051C44.2723 13.5795 44.4512 14.5265 44.4224 15.4788C44.4224 18.7632 42.875 21.1273 37.5172 21.1273V21.1306ZM66.3305 18.1937H73.8852C73.774 18.7245 73.5422 19.2216 73.2083 19.6458C71.642 20.9374 69.6432 21.5659 67.6297 21.3998C66.6161 21.5096 65.5913 21.3975 64.6244 21.0712C63.6574 20.745 62.7709 20.2122 62.0253 19.5088C61.2614 18.3747 60.8986 17.0126 60.9953 15.6436C60.8717 14.209 61.2663 12.7777 62.1059 11.6152C63.1616 10.4078 64.9492 9.88737 67.5765 9.88737C69.2481 9.74726 70.9177 10.1818 72.3153 11.1208C72.7558 11.475 73.0851 11.9512 73.2631 12.4914H80.2697C80.2188 11.6013 80.0073 10.7282 79.646 9.91511C77.968 6.46105 74.0674 4.40526 67.4346 4.40526C61.6659 4.40526 57.7942 6.18695 55.6553 8.87416C54.2427 10.8147 53.5175 13.1806 53.597 15.5897C53.5056 18.0534 54.2121 20.4797 55.6086 22.4995C57.7217 25.2732 61.4853 26.6372 66.0082 26.6372C69.0151 26.8494 72.0015 25.9969 74.4558 24.2257L74.646 26.3076H80.4664V13.5617H66.3305V18.1937ZM96.9862 4.29595C87.6181 4.29595 82.6891 8.79095 82.6891 15.3907C82.6891 22.847 87.8599 26.629 96.9862 26.629C107.033 26.629 111.257 22.2433 111.257 15.3907C111.257 8.43689 106.491 4.29758 96.9862 4.29758V4.29595ZM96.9604 9.88737C97.5814 9.88551 98.202 9.92147 98.8188 9.99505L90.6452 18.2737C90.269 17.3944 90.0859 16.4432 90.1084 15.4853C90.102 12.1096 91.788 9.88737 96.9604 9.88737ZM96.9862 21.1257C96.3553 21.1285 95.7249 21.0913 95.0987 21.0147L103.346 12.6643C103.734 13.5503 103.92 14.5134 103.89 15.4821C103.893 18.7632 102.352 21.1273 96.9862 21.1273V21.1257Z" fill="white"/>
</svg>
